<svg id="Layer_2_1_" xmlns="http://www.w3.org/2000/svg" viewBox="0 0 128 86" enable-background="new 0 0 128 86"><style>.st1{fill:#fff}</style><defs><filter id="Adobe_OpacityMaskFilter" filterUnits="userSpaceOnUse" x="0" y="0" width="128" height="86"><feColorMatrix values="1 0 0 0 0 0 1 0 0 0 0 0 1 0 0 0 0 0 1 0"/></filter></defs><mask maskUnits="userSpaceOnUse" x="0" y="0" width="128" height="86" id="SVGID_1_"><g filter="url(#Adobe_OpacityMaskFilter)"><path id="path-1_83_" class="st1" d="M5 0h118c2.8 0 5 2.2 5 5v76c0 2.8-2.2 5-5 5H5c-2.8 0-5-2.2-5-5V5c0-2.8 2.2-5 5-5z"/></g></mask><g mask="url(#SVGID_1_)"><path class="st1" d="M0 0h128v86H0z"/><path d="M0 79.1h128V86H0v-6.9zM0 0h128v6.9H0V0zm0 13.5h128V20H0v-6.5zm0 13.1h128v6.6H0v-6.6zm0 13.1h128v6.6H0v-6.6zm0 13.1h128v6.6H0v-6.6zM0 66h128v6.6H0V66z" fill="#b22234"/><path fill="#3c3b6e" d="M0 0h64.9v46.3H0z"/><path class="st1" d="M59.9 13.3l-.6-1.8-.6 1.8h-1.9l1.5 1.1-.6 1.8 1.5-1.1 1.5 1.1-.6-1.8 1.5-1.1h-1.7zM6.5 5.2L8 4.1H6.1l-.6-1.9L5 4.1H3l1.5 1.1L4 7l1.5-1.1L7.1 7l-.6-1.8zm10.8 0l1.5-1.1h-1.9l-.6-1.8-.6 1.8h-1.9l1.5 1.1-.5 1.8 1.5-1.1L17.8 7l-.5-1.8zm10.7 0l1.5-1.1h-1.9L27 2.3l-.6 1.8h-1.9L26 5.2 25.5 7 27 5.9 28.6 7 28 5.2zm10.8 0l1.5-1.1h-1.9l-.6-1.8-.6 1.8h-1.9l1.5 1.1-.5 1.8 1.5-1.1L39.3 7l-.5-1.8zm-26.6 32l1.5-1.1h-1.9l-.6-1.8-.6 1.8H8.7l1.5 1.1-.5 1.8 1.5-1.1 1.5 1.1-.5-1.8zm-1-.3zm.8-8.6l1.5-1.1h-1.9l-.6-1.9-.6 1.8H8.5l1.5 1.1-.6 1.8 1.6-1 1.5 1.1-.5-1.8zm0-8.9l1.5-1.1h-1.9l-.6-1.8-.6 1.8H8.6l1.5 1.1-.6 1.8 1.5-1.1 1.5 1.1-.5-1.8zM49.5 5.2L51 4.1h-1.9l-.6-1.8-.5 1.8h-1.9l1.5 1.1L47 7l1.5-1.1L50.1 7l-.6-1.8zm10.8 0l1.5-1.1h-1.9l-.6-1.8-.6 1.8h-1.9l1.5 1.1-.5 1.8 1.5-1.1L60.9 7l-.6-1.8zM22.8 19.4l1.5-1.1h-1.9l-.6-1.8-.6 1.8h-1.9l1.5 1.1-.6 1.8 1.5-1.1 1.5 1.1-.4-1.8zm-.1 8.9l1.5-1.1h-1.9l-.6-1.8-.6 1.8h-1.9l1.5 1.1-.6 1.8 1.5-1.1 1.5 1.1-.4-1.8zm.2 8.9l1.5-1.1h-1.9l-.5-1.8-.6 1.8h-1.9l1.5 1.1-.6 1.8 1.5-1.1 1.5 1.1-.5-1.8zm-.9-.3zm11.7.3l1.5-1.1h-1.9l-.6-1.8-.6 1.8h-1.9l1.5 1.1-.5 1.8 1.5-1.1 1.5 1.1-.5-1.8zm-.2-8.9l1.5-1.1h-1.9l-.6-1.8-.6 1.8H30l1.5 1.1-.5 1.8 1.5-1.1 1.5 1.1-.5-1.8zm0-8.9l1.5-1.1h-1.9l-.6-1.8-.5 1.7h-1.9l1.5 1.1-.6 1.9 1.5-1.1 1.5 1.1-.5-1.8zM11.9 9.8l1.5-1.1h-1.9l-.6-1.8-.6 1.8H8.4L10 9.8l-.6 1.8 1.5-1.1 1.5 1.1-.5-1.8zm10.7 0l1.5-1.1h-1.9l-.6-1.8-.6 1.8h-1.9l1.5 1.1-.6 1.8 1.5-1.1 1.5 1.1-.4-1.8zm21.7 9.6l1.5-1.1h-1.9l-.6-1.8-.6 1.8h-1.9l1.5 1.1-.6 1.8 1.5-1.1 1.5 1.1-.4-1.8zm-.1 8.9l1.5-1.1h-1.9l-.6-1.8-.6 1.8h-1.9l1.5 1.1-.6 1.8 1.5-1.1 1.5 1.1-.4-1.8zm.2 8.9l1.5-1.1H44l-.6-1.8-.6 1.8H41l1.5 1.1-.6 1.8 1.5-1.1L45 39l-.6-1.8zm10.8 0l1.5-1.1h-1.9l-.6-1.8-.6 1.8h-1.9l1.5 1.1-.5 1.8 1.5-1.1 1.5 1.1-.5-1.8zm-1-.3zm.8-8.6l1.5-1.1h-1.9l-.6-1.9-.6 1.8h-1.9l1.5 1.1-.6 1.8 1.6-1 1.5 1.1-.5-1.8zm0-8.9l1.5-1.1h-1.9l-.6-1.8-.6 1.8h-1.9l1.5 1.1-.6 1.8 1.5-1.1 1.5 1.1-.4-1.8zM33.4 9.8l1.5-1.1H33l-.6-1.8-.6 1.8h-1.9l1.5 1.1-.6 1.8 1.5-1.1 1.5 1.1-.4-1.8zm10.7 0l1.5-1.1h-1.9l-.6-1.8-.6 1.8h-1.9l1.5 1.1-.6 1.8 1.5-1.1 1.5 1.1-.4-1.8zm10.8 0l1.5-1.1h-1.9l-.6-1.8-.6 1.8h-1.9L53 9.8l-.6 1.8 1.5-1.1 1.5 1.1-.5-1.8zm-48.1 32l1.5-1.1H6.4l-.6-1.8-.6 1.8H3.3l1.5 1.1-.6 1.8 1.5-1.1 1.5 1.1-.4-1.8zm-.2-8.9l1.5-1.1H6.2L5.6 30 5 31.8H3.1l1.5 1.1-.6 1.8 1.5-1.1L7 34.7l-.4-1.8zm0-8.9l1.5-1.1H6.3L5.7 21l-.6 1.8H3.2L4.7 24l-.6 1.8 1.5-1.1 1.5 1.1-.5-1.8zm10.8 0l1.5-1.1H17l-.6-1.9-.6 1.8h-1.9l1.5 1.1-.6 1.8 1.5-1.1 1.5 1.1-.4-1.7zm-.1 8.9l1.5-1.1H17l-.6-1.8-.6 1.8h-1.9l1.5 1.1-.6 1.8 1.5-1.1 1.5 1.1-.5-1.8zm.2 8.9l1.5-1.1h-1.9l-.6-1.8-.5 1.8h-1.9l1.5 1.1-.6 1.8 1.5-1.1 1.5 1.1-.5-1.8zm10.8 0l1.5-1.1h-1.9l-.6-1.8-.6 1.8h-1.9l1.5 1.1-.6 1.8 1.5-1.1 1.5 1.1-.4-1.8zm-.2-8.9l1.5-1.1h-1.9l-.6-1.8-.6 1.8h-1.9l1.5 1.1-.6 1.8 1.5-1.1 1.5 1.1-.4-1.8zm0-8.9l1.5-1.1h-1.9l-.5-1.9-.6 1.8h-1.9l1.5 1.1-.6 1.8 1.5-1.1 1.5 1.1-.5-1.7zM6.5 14.4L8 13.3H6.1l-.6-1.8-.5 1.8H3l1.5 1.1-.5 1.8 1.5-1.1L7 16.2l-.5-1.8zm10.8 0l1.5-1.1h-1.9l-.6-1.8-.6 1.8h-1.9l1.5 1.1-.6 1.8 1.5-1.1 1.5 1.1-.4-1.8zM38.9 24l1.5-1.1h-1.9l-.6-1.9-.6 1.8h-1.9L37 24l-.6 1.8 1.5-1.1 1.5 1.1-.5-1.8zm-.1 8.9l1.5-1.1h-1.9l-.6-1.8-.6 1.8h-1.9l1.5 1.1-.6 1.8 1.5-1.1 1.5 1.1-.4-1.8zm.2 8.9l1.5-1.1h-1.9l-.6-1.8-.6 1.8h-1.9l1.5 1.1-.6 1.8 1.5-1.1 1.5 1.1-.4-1.8zm10.8 0l1.5-1.1h-1.9l-.6-1.8-.6 1.8h-1.9l1.5 1.1-.6 1.8 1.5-1.1 1.5 1.1-.4-1.8zm10.8 0l1.5-1.1h-1.9l-.6-1.8-.6 1.8h-1.9l1.5 1.1-.6 1.8 1.5-1.1 1.5 1.1-.4-1.8zm-11-8.9l1.5-1.1h-1.9l-.6-1.8-.6 1.8h-1.9l1.5 1.1-.6 1.8 1.5-1.1 1.5 1.1-.4-1.8zm10.7 0l1.5-1.1H60l-.6-1.8-.6 1.8h-1.9l1.5 1.1-.6 1.8 1.5-1.1 1.5 1.1-.5-1.8zM49.6 24l1.5-1.1h-1.9l-.5-1.9-.6 1.8h-1.9l1.5 1.1-.6 1.8 1.5-1.1 1.5 1.1-.5-1.7zm10.8 0l1.5-1.1H60l-.6-1.9-.6 1.8h-1.9l1.5 1.1-.6 1.8 1.5-1.1 1.5 1.1-.4-1.7zM28 14.4l1.5-1.1h-1.9l-.6-1.8-.6 1.8h-1.9l1.5 1.1-.6 1.8 1.5-1.1 1.5 1.1-.4-1.8zm10.8 0l1.5-1.1h-1.9l-.6-1.8-.6 1.8h-1.9l1.5 1.1-.6 1.8 1.5-1.1 1.5 1.1-.4-1.8zm10.7 0l1.5-1.1h-1.9l-.6-1.8-.5 1.8h-1.9l1.5 1.1-.6 1.8 1.5-1.1 1.5 1.1-.5-1.8z"/></g></svg>