<svg id="Layer_2_1_" xmlns="http://www.w3.org/2000/svg" viewBox="0 0 128 86" enable-background="new 0 0 128 86"><style>.st10,.st11{fill-rule:evenodd;clip-rule:evenodd;fill:#00a9dc}.st11{fill:#047e5a}.st12{fill:#231f20}.st13{fill-rule:evenodd;clip-rule:evenodd;fill:#fff100}.st14,.st15,.st16,.st17,.st18,.st19{fill-rule:evenodd;clip-rule:evenodd;fill:#854a00}.st15,.st16,.st17,.st18,.st19{fill:#f6921e}.st16,.st17,.st18,.st19{fill:#ffea81}.st17,.st18,.st19{fill:#231f20}.st18,.st19{fill:#9cb127}.st19{fill:#f05845}.st20,.st22,.st23,.st24,.st25,.st26{fill-rule:evenodd;clip-rule:evenodd;fill:#fff8ad}.st22,.st23,.st24,.st25,.st26{fill:#e6ba64}.st23,.st24,.st25,.st26{fill:#217e5f}.st24,.st25,.st26{fill:#f9a64a}.st25,.st26{fill:#8e5630}.st26{fill:#00652e}.st27,.st28,.st29,.st30,.st31,.st32{fill-rule:evenodd;clip-rule:evenodd;fill:#599f56}.st28,.st29,.st30,.st31,.st32{fill:#00753d}.st29,.st30,.st31,.st32{fill:#224b8e}.st30,.st31,.st32{fill:#cd181f}.st31,.st32{fill:#d0d2d3}.st32{fill:#f6921e;stroke:#231f20;stroke-width:.1626;stroke-miterlimit:22.9256}</style><defs><filter id="Adobe_OpacityMaskFilter" filterUnits="userSpaceOnUse" x="0" y="0" width="128" height="86"><feColorMatrix values="1 0 0 0 0 0 1 0 0 0 0 0 1 0 0 0 0 0 1 0"/></filter></defs><mask maskUnits="userSpaceOnUse" x="0" y="0" width="128" height="86" id="SVGID_1_"><g filter="url(#Adobe_OpacityMaskFilter)"><path id="path-1_64_" d="M5 0h118c2.8 0 5 2.2 5 5v76c0 2.8-2.2 5-5 5H5c-2.8 0-5-2.2-5-5V5c0-2.8 2.2-5 5-5z" fill="#fff"/></g></mask><g mask="url(#SVGID_1_)"><path fill-rule="evenodd" clip-rule="evenodd" fill="#fff" d="M0 0h128v86H0z"/><path fill-rule="evenodd" clip-rule="evenodd" fill="#006847" d="M0 0h42.7v86H0z"/><path fill-rule="evenodd" clip-rule="evenodd" fill="#ce1126" d="M85.7 0H128v86H85.7z"/><path class="st10" d="M60.7 51l-.9-.2-1-1.2-.2.6s-1-.2-1.4-.5c-.5-.4-1.7-.5-1.7-.5s1.2.7 1.3 1.1c.1.4-.3.7-.3.7s.6.3 1.3.3c.7 0 1.4.5 1.4.5l-.8.9s.5.2 1.1.2h1.7l-.5-1.9zM66.1 51.3l3.5-.2-1.7 1 .5.6-.7.4h-2.8z"/><path class="st11" d="M67.9 48.9c.2 0 .9.4 1.2.1.3-.3.4-1 1.1-1.2.7-.2.8-.4 1.1-.3.3.1.8 1.2.8 1.6 0 .3-.5.8-1 1-.6.2-1.9.3-2.3.2-.4-.1-1.4-.8-1.4-.8l.5-.6z"/><path class="st12" d="M67.9 48.9h.1c.3.1.8.3 1 .1.1-.1.2-.2.3-.4.2-.3.4-.7.8-.8.2-.1.4-.2.5-.2.3-.1.4-.2.6-.1.2.1.4.3.5.7.2.4.3.8.3.9 0 .2-.2.4-.4.6-.2.2-.4.3-.7.4-.3.1-.8.2-1.3.2h-1c-.4-.1-1.4-.8-1.4-.8l.7-.6zm.1.1c-.1 0-.1-.1 0 0l-.7.4c.2.1 1 .7 1.4.8.2.1.6.1 1 0 .5 0 1-.1 1.3-.2.3-.1.5-.2.7-.4.2-.2.3-.4.4-.6 0-.2-.1-.6-.3-.9-.1-.3-.3-.6-.5-.6-.2-.1-.3 0-.6.1-.1.1-.3.1-.5.2-.4.1-.6.5-.8.8-.1.2-.2.3-.3.4-.3.3-.9.1-1.1 0z"/><path class="st11" d="M55.9 46.3c-.3-.6-.1-1.3-.6-1.6-.5-.3-1.2-1-1.5-.8-.3.2-1 .3-1 .8s-.2.9.4 1.3c.6.4 2.4.9 2.4.9l.3-.6z"/><path class="st12" d="M55.9 46.3c-.1-.2-.1-.5-.2-.7-.1-.4-.1-.7-.4-.8-.1-.1-.3-.2-.4-.3-.4-.3-.9-.6-1.1-.5-.1 0-.2.1-.3.1-.3.1-.7.3-.7.6v.3c0 .3-.1.7.4 1 .6.4 2.2.8 2.4.9l.3-.6zm-.1-.7c0 .2.1.5.2.7l-.3.6s-1.8-.5-2.4-.9c-.5-.3-.4-.7-.4-1v-.3c0-.4.4-.5.7-.7.1 0 .2-.1.3-.1.2-.1.7.2 1.1.5.2.1.3.2.4.3.3.2.3.5.4.9z"/><path class="st11" d="M59.7 47.3c-.4-.3-.4-.4-1-.9-.5-.4-.9-.9-1.3-.9-.5 0-1.2-.1-1.5.3-.3.4-.9 1-.5 1.5s1.2 1.2 1.7 1.2 2.8-.3 2.8-.3l-.2-.9z"/><path class="st12" d="M59.7 47.3c-.2-.1-.3-.3-.5-.4-.1-.1-.2-.3-.5-.5-.1-.1-.3-.2-.4-.3-.3-.3-.6-.6-.9-.6h-.3c-.4 0-1-.1-1.2.3-.1.1-.1.2-.2.3-.3.4-.6.8-.3 1.1l.8.8c.3.2.6.4.8.4.5 0 2.5-.2 2.7-.2v-.9zm-.4-.4c.1.1.2.3.5.4l.1.9s-2.3.3-2.8.3c-.3 0-.6-.2-.9-.5-.3-.2-.6-.5-.8-.8-.3-.4 0-.8.3-1.2.1-.1.2-.2.2-.3.2-.4.8-.3 1.2-.3h.3c.3 0 .6.3 1 .6.1.1.2.2.4.3.2.3.4.4.5.6z"/><path class="st11" d="M65.1 48.3l-1-.5s-1.1-1-1.8-1.2c-.8-.2-1.8-.5-2.2-.1-.4.4-.9.9-.7 1.3.2.4.2 1.1.9 1.3.7.3 1.5.5 2.2.4.7-.2 2.3-.7 2.3-.7l.3-.5z"/><path class="st12" d="M65.1 48.3l-1-.5s-1-1-1.8-1.2l-1.2-.3c-.4 0-.8 0-1 .2l-.6.6c-.1.2-.2.5-.2.7 0 .1 0 .2.1.2.1.4.2.8.8 1 .3.1.7.3 1.1.3.4.1.8.1 1.1 0 .7-.2 2.2-.6 2.3-.7l.4-.3zm-.9-.6l1 .5-.4.5s-1.6.5-2.3.7c-.4.1-.7.1-1.1 0-.4-.1-.8-.2-1.1-.3-.6-.2-.7-.7-.8-1.1 0-.1 0-.2-.1-.2-.1-.2 0-.5.2-.7.2-.2.4-.5.6-.7.2-.2.6-.2 1-.2s.9.2 1.3.3c.6.2 1.6 1.1 1.7 1.2z"/><path class="st13" d="M56.4 32.1c.2.1.4.8.4.8 0 .1.2-.5 0-.8-.2-.3-.2-.4-.2-.4l-.2.4z"/><path class="st11" d="M56.8 32.2s.1-.8-.2-.6c-.3.2-1.4.9-1.5 1.1-.2.2-.4.5-.3.7.1.2.3.6.4.6 0 0 0 .6.1.8.1.2.2.4.5.4H57s.8.3.9.5c.1.2.3.4.1.6-.2.2-2.7 1.9-2.5 3.6.1 1.7 1.2 2 2.4 1.9 0 0-1.8-.2-1.5-1.6.3-1.4 2-2.3 2.3-2.6.3-.2.7-1.5-.5-2.3-1.2-.8-1-.9-1-.9h-.4c-.3 0-.6 0-.5-.4s.7-.2.9-.4c.1-.1.2-.5.2-.5s-.4.4-.6.4c-.2 0-.7.1-.5-.1.2-.3.3-.3.3-.3l.2-.8v-.1z"/><path class="st14" d="M58.1 37.7s.4-.1.5-.3c.2-.1.7-.8.7-1.3s-.3-1.2-.5-1.5c-.2-.2-1.4-.4-1.4-.4l-.4-.1-.3.5 1.3.9.4.8-.3 1.4z"/><path class="st11" d="M56.8 43.2c-.3 0-.4 0-.6-.3-.2-.3-.3-.7-.4-1.1-.1-.4-1-.8-1.1-1.2-.1-.8 1-2.6-.8-2.9-1.1-.2-.4.8-.4.8s.7.4.5.7c-.1.3-.7 1.1-.5 1.8.1.7 1 .9 1.3 1.4.1.2.3.5.3.7.2 1.4 1.1 1.9 2.3.9 1.3-.9-.6-.8-.6-.8z"/><path class="st15" d="M53.4 38.7s.5-.1.6-.4c.2-.4.2-1.1-.4-.8 0 0 0-.2-.4-.1 0 0-.2-.4-.7 0-.5.4 0 .5.1.5 0 0 0 .9.5.6 0-.1 0 .2.3.2z"/><path class="st16" d="M52.5 37.6l.2-.1h-.2zM52.8 37.7v.2h.3v-.3zM53.5 37.9l.1.3h.4l-.5-.3zM54.1 38.2l.5-.1-.1.4-.5.2.4-.4-.3-.1zM54.4 39l.4-.1.1-.3-.3.1.1.1zM54.4 39.4l-.2-.1.3-.2-.1.1.2.1zM54.2 39.5h.3l.3.2-.3-.1zM54.7 39.9l-.3-.1-.4-.1.3.2zM53.8 40l.5.1.4.1-.4.1zM54.7 40.5h-.6l.4.2zM53.9 40.9l.1-.3-.3.3zM54.5 41.1l-.3.5.4-.3.4-.2zM54.8 42.1l.5-.2h-.5l.1-.4-.3.3.1.2.1.1zM55.1 41.5l.2-.1.2.1zM55.1 42.3v.2l.3-.2zM55.7 43.1l-.2.5.3.1-.2-.2zM56.7 43.9l-.2.4-.3.1v-.6l.1-.3v.7zM55.7 43.8v.3l.4-.1-.3-.1zM57.8 36.5l.2.4.8-.1-.6-.1-.2-.3-.2.1zM57.6 36.8l.1.7.6-.1v-.2h-.5zM56.9 37.2l.2.7h.8l-.6-.3-.2-.3.4-.1-.4-.1zM56.5 38.1v-.4l.1-.1.4.2.3.5-.6-.4z"/><path class="st16" d="M56.1 38.2l.1.3.1-.1v-.2l.4.1.2.3v-.4l-.6-.2zM55.4 34.8h.6l-.7.2.1-.2zM56.4 34.8l.1-.5-.2.2z"/><path class="st16" d="M56.1 34.2l-.1.6-.1-.5-.4.1.4-.5.1.4zM55.2 34.1l.3-.3.3.2h-.4v.3l-.2-.2z"/><path class="st17" d="M55.9 32.2v.3l.2-.3z"/><path class="st18" d="M56.7 31.7v.3l-.4.3zM55.6 32.3l-.6.5-.2.4h.5l.4-.5-.1-.4zM56.2 32.6l-.5.7v.3l.3-.5zM56.1 33.6v.2h-.2c0-.1.1-.3.2-.2z"/><path class="st17" d="M58 35.2l.4-.4-.1.3zM58.5 35.5l.5-.4-.2.4h-.3zM58.9 36l.3-.1.1.3zM58.9 36.7l.2.1-.1.2h-.2z"/><path class="st11" d="M63.4 51.3s.1-1.7.5-2.3c.5-.6 1.2-1.3 1.2-1.3l1.5-.5 1.2.2s.6.4.6.8-.1.8-.5 1.1c-.4.2-2.3 1-2.3 1l-.6 1.1-1.6-.1z"/><path class="st12" d="M63.4 51.3s.1-1.7.5-2.3c.5-.6 1.2-1.3 1.2-1.3l1.5-.5 1.2.2s.6.4.6.8c0 .2 0 .4-.1.6-.1.2-.2.4-.4.5-.4.2-2.2.9-2.3 1l-.6 1.1-1.6-.1zM64 49c-.4.6-.5 2.1-.5 2.3H65l.6-1.1s1.9-.7 2.3-1c.2-.1.3-.3.4-.5.1-.2.1-.4.1-.6 0-.4-.5-.7-.6-.8l-1.1-.2-1.5.5c-.1.1-.8.8-1.2 1.4z"/><path class="st17" d="M62.9 48.2h-.3l-.2.2.3.1zM61.3 47.8c.1 0 .5.2.5.2l-.3.4-.2-.6zM60.2 48.3c.1 0 .6.1.6.1l-.4.3-.2-.4zM61.1 46.8c.1 0 .5.5.5.5l.1-.3-.6-.2zM62.4 47l.3.5.1-.3-.4-.2zM60.3 46c0 .1.3.6.4.5.1 0 .3-.4.3-.4l-.7-.1zM59.9 48.7h-.7s0 .5.1.5l.6-.5zM60.8 49.7c.1-.1.7-.4.7-.4s-.3-.1-.4-.1c-.2-.1-.3.5-.3.5zM62.7 49.3l.3.3V49l-.3.3zM64.4 50.3l.2-.6s.6 0 .6.1l-.4.4-.4.1zM65.7 48.9v.4l.4-.3zM66.7 49.2c.1 0 .4.1.4.1l.1-.3-.5.2zM67.3 48.6c.1-.1.3-.2.3-.2l.3.1-.2.3-.4-.2zM66.4 49.8l.4.4-.2-.6zM64 49.2h.5l-.5.4v-.4zM68.3 49.9l.2.5v-.5h-.2zM68.7 49.4v.2l.4-.2zM69.7 49.4v.2l.4-.2zM70.7 48.8h.4v-.3zM70 48.4l.3-.2v-.3l-.2.2zM70.5 49.9l.5.3-.1-.3h-.4zM71.7 49.2h.4l.2.3H72zM70.7 49.4l.4-.3.2.1-.3.2h-.3zM70.8 47.2l-.2.5.4-.1zM60 47.6l.3-.2.2.3zM58.4 48.2l-.2.4.4-.1zM57.4 48c.1 0 .4.2.4.2V48h-.4zM56.3 47.4c.1 0 .4.3.4.3l.2-.3h-.6zM56.7 48.5l.4-.2.1.1-.1.1zM56 46.6l.4.2v-.2zM56.8 46l.2.4.1-.2-.3-.2zM55.5 47.6l.4-.2-.1.3-.3-.1zM53.5 45.1l.1.3h.2l-.3-.3zM52.5 45.1l.5.3.1-.1-.6-.2zM53.3 46.1l.4-.1v.2l-.4-.1zM54.8 46.5l-.2.2.4-.1-.2-.1zM54.8 45.9l.3.3v-.3zM55.1 45v.2h.3l-.3-.2zM54.4 44.5l-.1.3.4-.1zM55.8 45.1l-.3.3.3.1zM56.6 45.2v.3l.3.1z"/><path class="st19" d="M52.1 43.6s-.3.2 0 .5 1.1.4 1.1.4l.7-.4s0-.7-.3-.9c-.3-.2-.2-.3-.2-.3l.1-.6h-.4l-.3.3-.1-.3s-.3-.3-.5-.7c-.2-.4-.2-.5-.3-.4-.1.1-.1.4.1.6.2.2.3.6.3.6l-.3.2-.4.5.4.1h.3l-.2.4z"/><path class="st20" d="M51.9 43s.2-.2.3-.2l.3.4h-.4l-.2-.2zM52.4 42.6l.3-.1.2.5h-.3l-.2-.1zM53.1 42.4h.3l-.2.5H53zM52.7 43.2l.5-.1.3.3-.1.6-.4.1-.7-.4v-.2z"/><path class="st19" d="M57.5 46.9s-.3-.6-.1-1c.2-.4.4-.6.4-.6s-.2-.4-.1-.5c.1-.1.6.1.6.1v.2l.2-.2h.1s0-.5.3-.6c.3-.1.2.3.2.3l-.3.4.1.1-.3.5.5-.3.2.4-.5.3-.2-.2s.2.5 0 .7c-.1.2-.6.6-.6.6l-.5-.2z"/><path class="st20" d="M57.9 45l.1.4h.1l.1-.4zM58.5 45.1l-.1.3.2.1.3-.2-.2-.3zM58.9 45.7l.4-.1-.1.2-.4.1zM57.7 45.8l-.2.6.3.6.4-.3.4-.8-.4-.2zM58.9 44.5l-.1.4.3-.4z"/><path class="st19" d="M71.1 48.3c0-.3.2-.7.5-.9.3-.2.6-.3.6-.3l.1.1s0-.5.2-.6c.2-.1.6.5.6.5s.1.1.2-.1.6-.5.7-.4c.2.1.4.2.1.4-.3.2-.7.4-.7.4l-.2.3c-.1 0 .3.1.3.1l-.2.4-.5-.1v-.2s-.7.8-1 .8c-.4.1-.6 0-.7-.4z"/><path class="st20" d="M72.4 47.3v-.5h.3v.2zM72.5 47.5c0-.1.3-.4.3-.4l.2.2-.3.2h-.2zM72.9 47.9l.3-.1v.3l-.3-.1zM71.2 48.4c.1-.2.2-.6.3-.7.2-.1.7-.2.7-.2l.1.3v.3s-.1.2-.3.3c-.2.1-.6.2-.6.2l-.2-.2zM73.3 47.1c.2-.2.5-.4.5-.4l.2.1-.3.3c0-.1-.4 0-.4 0z"/><path d="M61.6 50.4c1.3-.1 1.8 0 2.2 0 .5 0 1.8.2 1.8.2s.5-.4.8 0c.3.3 0 .9 0 .9s.2.7 0 1c0 0 .5 1-.4 1 0 0-1 .4-2.2.3-1.2-.1-2.4-.4-2.4-.4s-.9.4-1-.1c-.1-.5.4-.7.4-.7s-.5-.5-.4-.8c.1-.4.2-.6.2-.6s-.6-.8.1-.9c.6-.2.9.1.9.1z" fill-rule="evenodd" clip-rule="evenodd" fill="#e0851b"/><path class="st22" d="M54.6 48.7c.3-.2.9-.3 1.1 0 .3.3.3.7.3.7l-.4.3s-.6.1-.7-.3c-.2-.4-.3-.7-.3-.7zM57.2 52.9c.2-.3.5-.6.9-.6s.7.4.7.4.1.3-.3.6c-.4.2-1.2.1-1.2.1l-.1-.5zM69 51.2c0-.1 0-.3.2-.5s1.2-.2 1.4 0c.2.2-.2.5-.2.5l-.2.2s-.8.6-1.2-.2z"/><path class="st23" d="M48.9 44.1l-.7-.4-.1-.3s-.6-.3-.6-.9l.6.1-.1-.7.2-.5.4.2c.1 0-.2-.3.2-.6.3-.3 1-.4 1-.4s.1.5-.1.7c-.2.2.4.1.4.1s-.3.9-.6.9c-.3.1.6 0 .6 0s-.1.7-.4.8c-.3.1-.3.7-.3.7l-.3.5-.2-.2zM49.8 46l-.6.4s-.1.4 0 .7c.2.2.1.5.1.5l-.6-.2.3.8s.4 0 .5.3c.1.2-.2.2-.2.2l-.4.2s.7.5.9.4c.3-.1 1 .4 1 .4h.4l-.2-.8s-.3 0-.3-.4c.1-.4 0-1 0-1l-.6.3s.6-.9 0-1.4l-.4.4v-.7l.1-.1zM52.2 50.6c-.2.3-.6.6-.3.9.3.3.5.3.5.6l-.6.2.5.7h.6l-.1.4-.3.1.2.2 1.1-.1 1.1-.2-.3-.6h-.2s0-1.1-.4-1.2c-.3-.1-.6.7-.6.7s0-1.2-.3-1.4l-.3.6c0-.2 0-.9-.6-.9zM56.4 53.7l-.1.4s.2.5.1.7c0 .2.1.5.5.6.4.1.7.3.7.3l-.5.4s0 .4.5.4 1-.2 1-.2h.4l-.3.3v.5s1-.3 1.1-.7c.1-.4 1.6-1.2 1.6-1.2s-.8-.1-.9-.3c-.1-.2-.7-.3-.7-.3s-.4-.7-.7-.7c-.2 0-.4.8-.4.8s-.4-.8-.9-.8-.5.1-.5.1l.1.3s-.3 0-.5-.2c-.1-.3-.5-.4-.5-.4z"/><path class="st24" d="M48.3 44.8l.5-.1v.5l-.5.4-.5-.3.3-.4-.1-.2.1-.3.3.1-.1.3zM49.8 45.1l-.4-.5.3-.3.5.1v-.2l.3-.1.1.4h-.1l.1.5-.5.1zM51.6 49l.5-.1-.1-.3h.4l.1.4.2.4-.5.2-.6-.2zM50.8 49.7l.2.4v.2l-.2.3h-.4l-.2-.2.1-.4h-.1l.1-.4.2.1zM55.5 53.2l.4.2.4-.2.1-.4-.2-.4-.2-.2-.3.2v.1l-.3.4c.1.2.1.3.1.3zM55.5 54.2l-.5-.5v.3l-.6.2.2.4.5.2.5-.2z"/><path class="st25" d="M56 53.3l.5.8-.3-.9zM55.4 54.2l.9-.2-.8.4-.1-.2zM50.8 50.2l1.1.2-1-.1-.1-.1zM52 49.4l-.2.9v-1zM48.6 45.2l.9.5-.9-.4zM49.9 45l-.4.9.6-.9z"/><path class="st26" d="M49 44l.6 2.6.2-.3zM52.2 51l-1-1.6 1.1 1.4zM56.5 54.1L54.6 53l-.2.1 2.2 1.3zM60.4 54.9l2.1.2-1.9.1z"/><path class="st27" d="M77.4 45.8c0-.1.1-.7-.2-1.3-.3-.5-.2-1.1-.2-1.1l-.1-1.2.8.9s-.2-.6.1-1.1c.3-.5.6-.8.6-.8l.4 1.3.3-.3s.4.9.3 1.5c-.2.7-1.3 1.5-1.3 1.5l-.5.7-.2-.1z"/><path class="st28" d="M77.1 42.8s-.2.6.1 1.1c.2.5.2.6.2.6l-.2-1.2-.1-.5zM78.3 41.6c-.3.3-.4.6-.4.8 0 .2-.1 1.7-.1 1.7l.4-1.5.1-.5v-.5zM79 42.5c-.2.3-.3.6-.3.9 0 .3-.6 1.5-.6 1.5l.7-1.1.2-.7v-.6z"/><path class="st27" d="M76.3 46.5c-.6.6-.9.8-1 1.2 0 .3-.2 1.1-.1 1.6 0 .5.1 1.1.1 1.1s1.2-.5 1.5-.7c.3-.2.9-.4 1.1-1.1.2-.7.6-1.6.6-1.6l-1.2.4.1-1.1s-.5.2-.7.6c-.2.4-.5.9-.5.9s0-.6.1-.8c.1-.3 0-.5 0-.5z"/><path class="st28" d="M75.9 47.3s-.5.9-.5 1.3v1.1s.6.1.8-.1c.3-.2 1.7-1.9 1.7-1.9l-.6-.2-.3 1-1.2 1 .3-1 1-1.2-1 .8-.5 1.1.2-1.3.1-.6z"/><path class="st27" d="M71 53.8c.4-.3.6-.9.7-1.2.1-.3.4-.9.7-1.1.4-.3 1-1.2 1-1.2h.2s-.5 1.3-.5 1.5c0 0 1-1.1 1.8-1l-.5 1.2.4-.2s-.2 1.6-.9 1.8c-.7.1-2.3.1-2.3.1l-.5.4-.1-.3z"/><path class="st28" d="M73.1 51l-.8.9-.6 1.3.8-1.2.6-1zM74.6 51l-1 .5-.4.6-.9.6 1.2-.6.4-.5zM74.4 52.3l-2.1 1.2 1.2-.3z"/><path class="st27" d="M64.3 54.9h2.1c.1 0 .9-.7.9-.7l2.1-.6-1.9 1s.5-.3 1.5-.3c1.1 0 1.6.2 1.6.2l-1.6.9 1.1.2s-.7.1-1.3.5c-.6.4-1.2.7-2 .3-.7-.5-2.1-1.2-2.1-1.2h-.5l.1-.3z"/><path class="st28" d="M66.8 56.1c.1 0 .1 0 0 0 .6-.1 1.9-.2 2-.2.1 0 .2-.3.2-.3s-1.8.1-2 .1c-.2 0-1-.1-1-.1l.8.5zM69.2 54.5c-.6.1-2 .3-2 .3l-.4.4s-1.5-.1-1.4-.1c.2 0 1.4.2 1.4.2h.8l.2-.3 1.4-.5z"/><path class="st29" d="M63 54.6v1.1s-.4 0-.4-.4c-.1-.4.4-.7.4-.7z"/><path class="st30" d="M63.6 54.6c0 .5-.1 1.1 0 1 .1 0 .5-.1.4-.5-.1-.3-.4-.5-.4-.5z"/><path class="st29" d="M62.7 55.8l.4.2s-.6.2-1 .6c-.4.4-.8.7-.8.7l.1-.6 1.3-.9z"/><path class="st30" d="M63.6 55.9c-.2.2-1.1.9-1.1.9l-.3.5.3.4s.5-.4.9-.7c.4-.3.7-.7.7-.7s.1.4.4.5c.3.1.9.4.9.4h.6s-1-.4-1.2-.6c-.2-.2-.6-.9-.6-.9l-.6.2z"/><path class="st24" d="M70.4 52.6l-.1.7.3.2.4-.3zM71.3 54.5l.2.5.6-.5-.5-.2zM74.3 49.2c-.2.2-.2.6 0 .8l.4-.2v-.4l-.4-.2zM75.7 50.7l.2-.2h.3l.1.4-.3.3-.4-.2zM76.8 44.9l.1.3-.1.4-.4.1-.1-.2V45zM78.8 45.5v.5l-.5.4c0-.1-.4-.8.5-.9z"/><path class="st17" d="M58 35.7s-2.6.5-.7-2.2c0 0 .1-.6.7-.9.6-.3.9-1.1.5-1.3 0 0 .5 0 .5.3 0 0 .3-.5.3-.9 0 0 .3.7.4 1 0 0 .3-.7.4-1.1 0 0 .2.4.2.7 0 0 .5-.1.4-.7 0 0 .7.3.6.7 0 0 .3-.1 1 .2.7.3 1 .1 1 .1s-.1.2-.2.3c0 0 .7.4 1 .8 0 0 .3-.6-.2-1.1-.6-.4-1.9-.7-1.7-1.3.2-.6.7-.8 1.1-.7 0 0 .1-.7.9-.6.8.1 3 .3 4.4 1.1 1.3.8 1.8 1.1 2.5.9 0 0 0 .4-.2.6 0 0 2 1.6 2.7 3.1.6 1.2.7 2.5 1.9 3.3 0 0-.1.1-.5.2 0 0 .3 2.3-.2 4.1 0 0-.2 3-.6 3.7 0 0 .1-5.4-.6-6 0 0 .3 4.3 0 5.2 0 0-.2-3-.5-3.5 0 0 .1 2.4-.3 3 0 0-.4-3.2-.8-3.6 0 0 .2 1.1 0 1.7 0 0-.4-1.8-.8-2.1 0 0 .2 1.2.2 1.7 0 0-.8-1.9-1.3-2.1 0 0 .4 1.2.4 1.5 0 0-1-1.9-1.3-2 0 0 .4 1.3.6 1.7 0 0-.9-1.3-1.4-1.4-.4-.1-.4.2-.6-.1-.2-.3-.5-.7-.8-.5 0 0 .8 1.8.6 2.4 0 0 4.6 3.2 5.2 3.8.5.6-.4.7-.7.7-.3.1-.6-.1-.6-.1s-.2.5-.9.4c0 0-.7.4-1.2-.1 0 0-.6.2-1.2-.3-.5-.6-.8-.8-.8-.8s-.2.3 0 .6l-.4-.2v.4c0 .1.4.5.7.6.2.1.8 0 .9.3.1.3 0 .4 0 .4l-.7.4s-.6.3-.7-.4h-1.3l-.6.6h-.4l-.4-.5v-.3H64l-.2-.7s-.1-.2.1-.2.7.2 1 .1c.3-.1.4-.5.4-.7l-.3.3-.9-1.3-.1.3-.9-1.2s.1.9-.1 1c-.2.1-.5-.5-.5-.5s-.9.3-1.2.3c-.3 0-.9.1-.5-.3l-1.6-.4.4-.4h-.5s.3.2-.1.3c-.4 0-.5-.1-.6-.1h-.5s-.7.3-1 .2c-.3-.1-.6-.9-.6-1.2.1-.2.3-.3.3-.2 0 0-.1-.7.4-.4 0 0 0-.7.8-.4l.4-.2s1.4.3 1.6.5c.2.2.3.2.3.7h.6s-.7-.6-.6-1c0 0 .3-.1.4-.1.1 0-.6-.6-.4-1.3 0 0-.2-.3-.2-.4l-.4.2-.5-2c-.2-.8.5-1.4.5-1.4s-.2 0-.1-.3c.1-.2.7-1 .7-1.1h-.2l.4-.6c.2-.3.2-.4.2-.4h-.2l-.2-.2s-1 .6-1.2.6c-.2 0-.3 0-.5-.2-.3-.4-.8-.3-1-.1-.1.3-.1.8.6 1.1z"/><path class="st13" d="M58.2 33.4l.8-.4s.1-.2-.1-.3c-.2-.2-.4-.3-.4-.3l.2.5-.2-.1-.1.2.1.1-.3.3z"/><path class="st15" d="M57.6 33.4c.4.2 2 .5 2.3.4.2.3 0 .4 0 .5 0 0-.7.4-.9.4 0 0 0-.1.2-.2.2 0 .4-.1.4-.2v-.2s-.5-.2-.8-.1c-.3.1-.5.2-.8.2-.3 0-.6.1-.6.3-.1.2-.1.7.2 1 0 0-.9 0-1-.6-.1-.4.8-1.6 1-1.5z"/><path class="st13" d="M58.6 34.6l.3-.3c.1-.1.1-.1.2-.1h.3l-.8.4z"/><path class="st15" d="M63.9 46.7c.1.1.2.6.2.7h.5c.1 0 .7-.3.9-.4.1-.1.4-.2.3-.3 0-.1-.5-.4-.5-.4s-.1.2-.2.3c-.1.1-.4.2-.6.1-.3-.1-.7-.2-.6 0zM68.1 46.9h-.6c-.2 0-.7-.5-.7-.5-.1-.1-.5-.2-.5-.2l-.4.6s.3.2.4.2c.2 0 .7.1.7.2.1.1.1.5.2.6.1.1.2.3.5.2l.5-.7c.1 0 .1-.3-.1-.4z"/><path class="st15" d="M64.7 47.4c.1 0 1.1-.6 1.1-.6s.3.3.4.3h.7c.1 0 .2.3.2.3h-1.2l-.6.6H65s-.3-.3-.3-.4c-.1.1-.1-.2 0-.2z"/><path class="st12" d="M63.8 46.7l.2.6c0 .1 0 .1-.1.1s-.4.1-.3.5v.3l-.2-.2s-.5-.8.3-1.3h.1zm0 .7s-.1-.4-.2-.5c-.3.3-.3.6-.3.8.2-.2.4-.3.5-.3 0 0 0 .1 0 0z"/><path class="st31" d="M63.7 46.7l.2.6s-.5.1-.5.6c0 .1-.4-.7.3-1.2z"/><path class="st12" d="M64.5 47.8l.3.4.1.1h-.1s-.3.1-.3.7v.3l-.2-.3s-.5-.8 0-1.3l.2.1zm.1.4l-.2-.2c-.2.2-.2.5-.1.7.1-.3.2-.4.3-.5z"/><path class="st31" d="M64.5 47.9l.3.4s-.4.1-.3.8c-.1-.1-.6-.8 0-1.2z"/><path class="st12" d="M68 48l.4-.5.1-.1.1.1s.4.5.1 1.1l-.1.2v-.2s-.1-.5-.3-.4l-.2.1-.1-.3zm.4-.4l-.2.3c.1 0 .2.2.3.4.1-.3 0-.6-.1-.7z"/><path class="st31" d="M68 48l.4-.5s.4.5.1 1c0 0-.1-.6-.5-.5z"/><path class="st32" d="M56.5 43.1c.1.2.3.9.5 1 .2.1.4-.2.4-.2l-.5-1.1c-.1.1-.4-.1-.4.3z"/><path class="st32" d="M56.9 42.3c0 .1-.1.3-.1.4 0 .1.5 1.1.6 1.1.1 0 .1.1.2.1s.2-.1.3-.1c0 0-.2-.5-.3-.6-.1-.1-.1-.4-.1-.5 0-.1-.1-.1-.2-.2 0-.1-.2-.2-.4-.2z"/><path class="st32" d="M57.5 41.9c-.1 0-.2.2-.2.3 0 .1.1.3.2.4.1.1 0 .4.1.6.1.2.2.6.3.6.1 0 .3.1.3 0 0 0-.2-.5-.3-.7.1-.1.1-.5.1-.7V42c-.1 0-.2-.2-.5-.1z"/><path class="st32" d="M58.7 43c.1.1.4.4.4.5 0 .1.1.2.1.3 0 .1-.5.1-.7 0-.2-.1-.2-.3-.3-.4 0-.1-.1-.3-.1-.3s.3-.1.4-.1c.1-.1.2 0 .2 0z"/><path class="st14" d="M57.7 33.4h.4s.2-.2.3-.5c.1-.3.2-.8.3-1 0 0-.1.4-.4.6-.3.2-.5.2-.5.4-.1.2-.2.3-.2.3v.2h.1zm6-3.4l-.3-.7.3-.3h.9l1.7.3 1.5.6s.9.5 1 .6c.1.1.7.4.7.4l1 .2-.3.4-.6.3-.6-.1-.2-1-.1.9-.7-.3-.2-.2-.9-1.3.2 1-.9-.9-.7-.2.8.8-.7-.3h-.7l-1.2-.2zm3.3 1.1l.1.7h.7l-.3-.6c0-.1-.4-.1-.5-.1zm.8.9l.6.1.3.5.5-.1V32l-.9-.4-.5.4zm-.6 0l.3.1.8.2.6.6v.6l-.4-.4-1.4-.5.1-.6zm0 1.3l.4.9.6.4.4.3.4-.4-.3-.8-.6-.4h-.9zm0 1.4l.3-.1.5.2.5.5-.2.4h-.6l-.5-.5v-.5zm-.7 1.4l-.1.3.5.4h.6v-.6l-.5-.5-.5.4zm.5 1.2l.3-.2.3.4-.2.4-.4-.2v-.4zm2.5-4.5l.3-.3.7.5.5.7.2.8.7 1.5-1-1.4-.2-.6-.9-.8-.3-.4zm-.4 1.2l.2.7.7 1.1.9.8.2-.2-.1-.8-.5-.8-1-1.1-.4.3zm-.4 1.3l.4.8.8.5-.5-.9-.4-.5-.3.1zm-.9 1.1l.9-.3.1.7-.1.9-.8-.8-.1-.5zm5.8 1.1l1.2.1-.6-.8-.7-1.7-.5-1-.7-.9-1-1.1-.7-.5-.8.4 1.6.6-.5.2 1 .6-.5.1 1.4.7-.5.1 1 .7-.4.1v.5l.9 1 .1.5-.3.4zm-1.4-.4l.4.5.4-.1-.1-1.1-1.3-1.6.8 2-.2.3zm-.9.6h.6v-.6l-.6-1.4.2 1-.1.4-.4.1v.4l.3.1zm-1.4-.3h.6v-.9l-.9-1.2.4 1.1.1.5-.2.5zm-1.2.7l.3-.4V37l-.2-.9.7 1.2-.1.7s-.7 0-.7.1zm-1.3.5l.6.1.2-.5-.4-1 .1.7-.5.7zm-.1.3h.5l.1.2 1.1 1.1-1.2-.7-.5-.6zm.8-.1l.3-.2.4.6.6.5-.9-.3-.4-.6zm5.3-1.1l.6.2v1l-.1.2-.3-.1-.1-.5-.1-.8zm.9.2l.4.2s.2 1.5.2 1.6v1.6l-.7-1.9.1-1.5zm-1.5-.1l.2 1.1.9 1.1-.6-1.2-.2-.8-.3-.2zm-3.8.5l.2.9 1.4 1.2-.5-.9-.4-1.1-.7-.1zm1.2-.4h.4l.4 1.4.7 1.1-.3.3-.7-1-.5-1.8zm1.5.1v1l.5 1 .6 1.1-.1-.9-.6-1.2.1-1h-.5zm-5 0l.1 1h.3l.1-.7-.5-.3zm-.6-.1l.2-.3v-.5l-.2-.3.1-.2.4.3.2.5-.4.8-.3-.3zm-.9-2.7l.2-.8-.5-1 .5.3.2-.1-.2-.6-.9-.6h.5l.5.4-.5-1-.6-.3h.5l-.8-.5h-.6l.2-.3-.4-.3-.6.1.7-.3-.3-.2h-.4l.4-.1-.1-.2h-.4l-.3.3-.2.3.1.3.5.2.7.3.4.3.2.4.1.6v.4l.6 1.3c.1 0 .5 1.1.5 1.1zm0 .3l.5-.3.3-.7.1-1-.2-1.1-.4-.6-.7-.9-.6-.2.6.6.7.9.3.9v1.2l-.2.7c0-.1-.4.5-.4.5zm.6.1h-.6v1.2l.8-.2.4-.6-.6-.4zm.3-.9l.8.3-.1.6h-.3l-.7-.4.3-.5zm.3-1.1l.6.3v.7h-.5l-.3-.3.2-.7zm-.2-1.4l.8.3v.7l-.1.3-.6-.2v-.8l-.1-.3zm-1.1-1.4l.6 1.1.6.2.6.1-.1-1.1-.6-.3h-1.1zm-6.5 12.9l.5-.2.1.2v.2h-.3l-.3-.2zm.8-.6l-.3.2.1.1.2.2.5-.3-.2-.2h-.3zm.7-.5l.1.3-.1.2-.4-.1.4-.6v.2zm-.5 1.1l.4-.3.3.3h-.7zm2.1.2l-.3-.7-.5-.2-.9.3.5.4.9.3.3-.1zm-2.1.2l.1-.2.2-.2 1.4.4-.3.4-1.4-.4zm2.6-.4l.3.8-1 .3h-.6l.4-.5.7-.4.2-.2zm1.1.1l.4.4.2.4h-.2l-.4-.6v-.2zm-.9-1h.4l.3.7-.7-.5v-.2zm-.1.4v.4l.2.6.4.7.1-.8v-.2l-.7-.7zm4.9 1.2l2.5 2.2-.4-.1-2.2-2 .1-.1zm.3-1v.3l3 2.7.5-.1-3.5-2.9zm.1-.8l-.1.3 3.8 3.2.3.1.4-.2-4.4-3.4zm.1-.5v.2l4.9 3.6-.1-.3-4.8-3.5zM66.5 44v.5l.1.2.1.5.3.6.1-.9.1-.8-.2-.4-.2.6-.3-.3zm-.6.8v-.3l.6.3.1.4v.8l-.3-.4-.4-.8zm-.8-.5l.1.7.3.6.5.7.3-.4-.3-.6-.9-1zm-.8.5l.6.2.3.5-.1.5-.8-1.2zM60.6 42l.6.3-.1.6-.4-.3-.2-.4.1-.2zm.8-.1l.5.6.3.2-.1.6-.3.4-.3-.5-.2-.2.1-1.1zm5.4-2.2l-.2 1.3.3.7.2 1.2v.5l.2.3.2-.9-.1-.9V41l-.6-1.3zm-1 1l.6.4.4.8.1 1.1-.1.9-.3-.3-.7-2.2v-.7zm-1 .3l.8.5.3.9.4 1.4-.1.6-.2-.2-1.1-2.1-.1-1.1zm-1 .8v.7l.9 1.1.9 1.1.1-.3-.6-1.2-.5-1-.8-.4zm-.8.3l-.1.7.3.6.7.7 1.1.6-.3-1.1-.7-1-1-.5zm-2.5-1.4l-.1.3.2.5.4.5.1-.3-.3-.7-.3-.3zm-.2-1v.3l.2.4.5.3.4.8.9 1 .6.2-.2-1-1-1.1-.4-.3-1-.6zm4.9-2.5l.1.8-.2.7.4 1 .2.7.6.4.2-1-.1-.9-.5-.7-.2-.4v-.3l-.5-.3zm-.7 1.6l-.2.7.4 1.1.8.7-.1-1.3-.3-1-.6-.2zm-1.1.5l.8.3.5 1.2.1 1.2-.9-.6-.2-.7-.5-.5.2-.9zm-1.6.1v.9l.7 1.1 1.2.8-.2-1.3-.6-.7-.6-.2-.5-.6zm2.4-2.3h.6l.3.9-.1.8-.5-.4-.1-.5-.1-.6-.1-.2zm-.6-.3l-.2.3-.1.6.1.7v.6l.6.3.3-.8v-.4l-.2-.9-.5-.4zm-3.3 0l-.2 1.4.1 1.1-.1.7-.3.2-.3-1.2-.2-1 .1-.5.3-.5.1-.2h.5zm.1.6l.8-.2.3-.3v1.4l.1.7-.2 1.3s-1-.6-1-.8c0-.2-.2-1.2-.2-1.2l.2-.9zm1.3-.1l.4.6h.4l.5-.4.1 1.1-.1 1-.2.6-.8-.6-.4-1.1.1-1.2zm-2.6-4.2l.6.4.7.1.4.2-.3.4-.3-.2-.1-.3h-.8l-1-.2.8-.4zm.3-.2l-.2.1.6.5.4-.1.5.3.4-.1-.3-.6h-.3l-.7.1-.4-.2zm1.1 2.7l.1.1-.3 1h-.6l.8-1.1zm.9-.5l-.6.3-.4 1.8.9-.3.5-1v-.5l-.4-.3zm-.4-1.3l-.1.5-.3.9.6-.2.3-.4V34l-.5-.2zm1-.1l.2.3h.2v.7l-.4.7-.4-.6v-.9l.4-.2zm.4 1.3l.9.4.1.8-.2.8-.6.6h-.3l-.5-.6-.1-.4.2-.7.3-.6.2-.3zm1-.5l.6.5.4-.7.3-.2.2 1.4.1.5v.4l-.2.4-.3.2-.7-.3-.3-1.2-.2-.3.1-.7zm-4-1.8l.7-.7.4-.2h1.2l.6.2h.6l.6.3.5.5.3.7v.6l-.3.6-.6-.7-.2-.9-.4-.6h-.7l.6.3.3.7.2.5v1l-.6-.4-.2-1-.3-.3V33l-.4-.7-.7-.1h-.2l.2-.2-.2.1-.2.3h-.2l-.4.4.5-.2.3-.2.6.2.3.4v.7l-.4-.2-.4-.5.3-.2h-1l-.4.2-.4-.3zm1.7-1.1v-.3h.3l.3.1.4.2.7.3-.9-.1-.8-.2zm-.4-.8l-.3.5-.2.5.7-.1.1-.3-.1-.4-.2-.2zm-.7.1l-.3.8-.2.4.2-.1.2-.2.2-.4-.1-.5zm-1.2.7v.2l.1.3v.2l.2.2h.2l.2-.4.1-.5-.2-.5-.1.4-.3.2-.2-.1z"/><path d="M56.7 38.8c-.1.4-.4 1.3.4 1.6.8.3.9 0 1.5 0 .5 0 1.2.6 1.4 1 .1.4 0 1.3-.3 1.4-.3.2-.7.5-.7.5s-.2-.3-.3-.4c-.2 0-.6.1-.6.1s-.1-.3 0-.5c.1-.3 0-.5 0-.6 0 0 .3-.1.3-.2h-.9c-.3-.1-1.3-.4-1.4-.8-.1-.3-.3-.9-.2-1.2.1-.2.8-.9.8-.9z" fill-rule="evenodd" clip-rule="evenodd" fill="#5f3100"/><path class="st16" d="M55.7 41.9l-.2.4.3-.3zM56.1 43v-.2h-.6l-.1.4.2-.3.5.1zM56.4 43.3l-.6-.1.6.2zM55.8 38.6l.3.4h.2l-.3-.2.7-.2zM55.7 39.3l-.1-.3.6.2h-.4zM55.5 39.4l.2.4v-.4zM55.5 40.1l.5.2.2.2h.3l-.4-.4z"/><path class="st17" d="M55.8 39.8l.6.3-.3-.4z"/><path class="st16" d="M55.6 40.5l.2.4v-.3z"/><path class="st17" d="M56 40.9h.5l-.3.1zM58.9 40.6l.1.5s-.1.7-.1.6l.4-.6-.4-.5zM57.8 40.7c.1.1.5.7.5.7V41l-.5-.3zM57.1 40.5l.1.7v.3l.3-.3zM56.7 40.3l-.2.4.3-.1zM59.7 42.1l-.5.1s-.7-.2-.6-.1l.6.4.5-.4zM58.4 42.4l-.2.3.3-.1zM58.5 47.4l.4.2-.1-.2z"/><path class="st27" d="M49.4 41.2l-.5 1.1v1.5l-.4-.3-.4-.5.4-.1-.1-.9s.4.1.4 0l.1-.7.5-.1zM49.8 46.8l1.1 2.5-1.2-.5.4-.4-1-.5.7-.3zM52.5 51.3l.8.9.8.8-.9.1s0-.5-.1-.5-.8-.2-.8-.2l.5-.4-.3-.7zM56.9 54.5l1.5.8h2.2l-1.3.7-.4-.4-1 .4.2-.5-1-.5z"/></g></svg>